# AST/ASF file generated using VICON BodyLanguage
# -----------------------------------------------
:version 1.10
:name VICON
:units
  mass 1.0
  length 0.45
  angle deg
:documentation
   .ast/.asf automatically generated from VICON data using
   VICON BodyBuilder and BodyLanguage model FoxedUp or BRILLIANT.MOD
:root
   order TX TY TZ RX RY RZ
   axis XYZ
   position 0 0 0  
   orientation 0 0 0 
:bonedata
  begin
     id 1 
     name lhipjoint
     direction 0.621036 -0.695554 0.361275 
     length 2.46325 
     axis 0 0 0  XYZ
  end
  begin
     id 2 
     name lfemur
     direction 0.34202 -0.939693 0  
     length 6.54784  
     axis 0 0 20  XYZ
    dof rx ry rz
    limits (-160.0 20.0)
           (-70.0 70.0)
           (-60.0 70.0)
  end
  begin
     id 3 
     name ltibia
     direction 0.34202 -0.939693 0   
     length 7.84737   
     axis 0 0 20   XYZ
    dof rx
    limits (-10.0 170.0)
  end
  begin
     id 4 
     name lfoot
     direction 0.0790693 -0.217241 0.97291   
     length 2.59747   
     axis -90 7.62852e-016 20   XYZ
    dof rx rz
    limits (-45.0 90.0)
           (-70.0 20.0)
  end
  begin
     id 5 
     name ltoes
     direction 1.53572e-011 -4.21898e-011 1   
     length 1.29919   
     axis -90 7.62852e-016 20   XYZ
    dof rx
    limits (-90.0 20.0)
  end
  begin
     id 6 
     name rhipjoint
     direction -0.602353 -0.708375 0.367935   
     length 2.41867  
     axis 0 0 0  XYZ 
  end
  begin
     id 7 
     name rfemur
     direction -0.34202 -0.939693 0   
     length 6.92065   
     axis 0 0 -20   XYZ
    dof rx ry rz
    limits (-160.0 20.0)
           (-70.0 70.0)
           (-70.0 60.0)
  end
  begin
     id 8 
     name rtibia
     direction -0.34202 -0.939693 0   
     length 7.88883   
     axis 0 0 -20   XYZ
    dof rx
    limits (-10.0 170.0)
 end
 begin
     id 9 
     name rfoot
     direction -0.0768692 -0.211196 0.974416   
     length 2.43714  
     axis -90 -7.62852e-016 -20   XYZ
    dof rx rz
    limits (-45.0 90.0)
           (-20.0 70.0)
  end
  begin
     id 10 
     name rtoes
     direction -1.53575e-011 -4.21933e-011 1   
     length 1.22113   
     axis -90 -7.62852e-016 -20   XYZ
    dof rx
    limits (-90.0 20.0)
  end
  begin
     id 11 
     name lowerback
     direction 0.0197937 0.98943 -0.143655   
     length 2.16931   
     axis 0 0 0   XYZ
    dof rx ry rz
    limits (-20.0 45.0)
           (-30.0 30.0)
           (-30.0 30.0)
  end
  begin
     id 12 
     name upperback
     direction -0.00183968 0.999975 0.00684288   
     length 2.17221   
     axis 0 0 0   XYZ
    dof rx ry rz
    limits (-20.0 45.0)
           (-30.0 30.0)
           (-30.0 30.0)
  end
  begin
     id 13 
     name thorax
     direction -0.00950244 0.997208 0.0740685   
     length 2.22549   
     axis 0 0 0   XYZ
    dof rx ry rz
    limits (-20.0 45.0)
           (-30.0 30.0)
           (-30.0 30.0)
  end
  begin
     id 14 
     name lowerneck
     direction 0.0218238 0.996215 0.0841425   
     length 1.77269   
     axis 0 0 0   XYZ
    dof rx ry rz
    limits (-20.0 45.0)
           (-30.0 30.0)
           (-30.0 30.0)
  end
  begin
     id 15 
     name upperneck
     direction -0.00430652 0.994214 -0.107332   
     length 1.76534   
     axis 0 0 0   XYZ
    dof rx ry rz
    limits (-20.0 45.0)
           (-30.0 30.0)
           (-30.0 30.0)
  end
  begin
     id 16
     name head
     direction -0.00328946 0.998959 -0.0454998  
     length 1.82634  
     axis 0 0 0   XYZ
    dof rx ry rz
    limits (-20.0 45.0)
           (-30.0 30.0)
           (-30.0 30.0)
  end
  begin
     id 17 
     name lclavicle
     direction 0.970962 0.239191 0.00450212  
     length 3.84872  
     axis 0 0 0   XYZ
    dof ry rz
    limits (-20.0 10.0)
           (0.0 20.0)
  end
  begin
     id 18 
     name lhumerus
     direction 1 -4.48966e-011 5.74696e-028   
     length 5.22771   
     axis 180 -30 -90   XYZ
    dof rx ry rz
    limits (-60.0 90.0)
           (-90.0 90.0)
           (-90.0 90.0)
  end
  begin
     id 19
     name lradius
     direction 1 -4.4896e-011 4.25109e-027   
     length 3.45251   
     axis 180 -30 -90   XYZ
    dof rx
    limits (-10.0 170.0)
  end
  begin
     id 20
     name lwrist
     direction 1 -4.48971e-011 1.15382e-027   
     length 1.72626   
     axis -5.52449e-016 90 90   XYZ
    dof ry
    limits (-180.0 0.0)
 end
  begin
     id 21 
     name lhand
     direction 1 -4.49034e-011 2.30765e-027   
     length 0.552119   
     axis -1.47248e-015 90 90   XYZ
    dof rx rz
    limits (-90.0 90.0)
           (-45.0 45.0)
  end
  begin
     id 22 
     name lfingers
     direction 1 -4.48951e-011 4.61529e-027   
     length 0.445133   
     axis -2.94495e-015 90 90   XYZ
    dof rx
    limits (0.0 90.0)
  end
  begin
     id 23
     name lthumb
     direction 0.707107 -6.34991e-011 0.707107   
     length 0.639124   
     axis -90 45 2.85299e-015   XYZ
    dof rx rz
    limits (-45.0 45.0)
           (-45.0 45.0)
  end
  begin
     id 24 
     name rclavicle
     direction -0.97424 0.222511 -0.0366699   
     length 3.73439  
     axis 0 0 0   XYZ 
    dof ry rz
    limits (-10.0 20.0)
           (-20.0 0.0)
  end
  begin
     id 25 
     name rhumerus
     direction -1 -4.48956e-011 -4.97258e-028  
     length 5.2398   
     axis 180 30 90   XYZ
    dof rx ry rz
    limits (-90.0 60.0)
           (-90.0 90.0)
           (-90.0 90.0)
  end
  begin
     id 26 
     name rradius
     direction -1 -4.4897e-011 -1.72611e-027   
     length 3.48042   
     axis 180 30 90   XYZ
    dof rx
    limits (-10.0 170.0)
  end
  begin
     id 27 
     name rwrist
     direction -1 -4.48976e-011 1.15382e-027   
     length 1.74021   
     axis -5.52449e-016 -90 -90   XYZ
    dof ry
    limits (-180.0 0.0)
  end
  begin
     id 28
     name rhand
     direction -1 -4.48963e-011 2.30765e-027   
     length 0.618713   
     axis -1.47248e-015 -90 -90   XYZ
    dof rx rz
    limits (-90.0 90.0)
           (-45.0 45.0)
  end
  begin
     id 29
     name rfingers
     direction -1 -4.4888e-011 4.61529e-027   
     length 0.498823   
     axis -2.94495e-015 -90 -90   XYZ
    dof rx
    limits (0.0 90.0)
  end
  begin
     id 30
     name rthumb
     direction -0.707107 -6.34968e-011 0.707107   
     length 0.716213   
     axis -90 -45 -2.85299e-015   XYZ
    dof rx rz
    limits (-45.0 45.0)
           (-45.0 45.0)
  end
:hierarchy
  begin
    root lhipjoint rhipjoint lowerback
    lhipjoint lfemur
    lfemur ltibia
    ltibia lfoot
    lfoot ltoes
    rhipjoint rfemur
    rfemur rtibia
    rtibia rfoot
    rfoot rtoes
    lowerback upperback
    upperback thorax
    thorax lowerneck lclavicle rclavicle
    lowerneck upperneck
    upperneck head
    lclavicle lhumerus
    lhumerus lradius
    lradius lwrist
    lwrist lhand lthumb
    lhand lfingers
    rclavicle rhumerus
    rhumerus rradius
    rradius rwrist
    rwrist rhand rthumb
    rhand rfingers
  end

#!OML:ASF G:\JayActor3\Patient Classification 1\Patient 1\Session 5\male.ASF
:FULLY-SPECIFIED
:DEGREES
504
root 24.9675 16.5597 -4.00545 -446.738 84.2691 -444.573
lowerback 3.62354 -1.24605 4.61522
upperback 2.72534 -1.48852 0.449455
thorax 0.666641 -0.664549 -2.07794
lowerneck -8.86702 0.038274 2.47715
upperneck 14.4508 -0.405306 1.33766
head 5.82995 0.085982 -0.0119265
rclavicle -6.36111e-015 3.97569e-015
rhumerus -31.565 -3.12804 -86.9576
rradius 29.7253
rwrist 0.481375
rhand -18.8004 -7.87158
rfingers 7.12502
rthumb 7.49783 -37.7187
lclavicle -6.36111e-015 3.97569e-015
lhumerus -31.2126 3.75312 83.8885
lradius 26.5488
lwrist 15.5857
lhand -20.1018 14.6286
lfingers 7.12502
lthumb 6.24156 44.5167
rfemur -4.95892 3.17655 33.1263
rtibia 29.4083
rfoot -24.5608 -17.0526
rtoes 9.93443
lfemur -26.5964 7.04186 -12.6888
ltibia 46.6832
lfoot -11.5449 9.37654
ltoes -19.0688
505
root 24.8965 16.5626 -4.01345 -446.935 84.324 -444.736
lowerback 3.59624 -1.2622 4.59949
upperback 2.72381 -1.51223 0.441282
thorax 0.678794 -0.676444 -2.07731
lowerneck -8.86502 0.0421638 2.47738
upperneck 14.4876 -0.39543 1.30773
head 5.84111 0.0893448 -0.0205943
rclavicle -2.5842e-015 -7.15625e-015
rhumerus -31.5951 -3.24351 -86.8702
rradius 29.5313
rwrist 0.605454
rhand -18.8029 -7.84361
rfingers 7.12502
rthumb 7.49542 -37.6908
lclavicle -2.5842e-015 -7.15625e-015
lhumerus -31.3257 3.90011 83.8675
lradius 26.2865
lwrist 15.3374
lhand -20.1414 14.7021
lfingers 7.12502
lthumb 6.2033 44.5913
rfemur -5.29271 3.25108 33.0398
rtibia 29.6097
rfoot -24.4747 -17.135
rtoes 9.98446
lfemur -26.2262 6.82088 -12.5909
ltibia 48.2713
lfoot -11.9526 9.84955
ltoes -18.6801
506
root 24.8265 16.5656 -4.02159 -447.08 84.3795 -444.849
lowerback 3.56611 -1.27601 4.57655
upperback 2.71844 -1.53315 0.436176
thorax 0.689017 -0.687209 -2.06962
lowerneck -8.86457 0.0439985 2.47264
upperneck 14.5257 -0.388277 1.28192
head 5.85294 0.0914502 -0.0273578
rclavicle 7.23079e-015 -3.57812e-015
rhumerus -31.6294 -3.36831 -86.7745
rradius 29.3371
rwrist 0.724254
rhand -18.8016 -7.81212
rfingers 7.12502
rthumb 7.49661 -37.6593
lclavicle 7.23079e-015 -3.57812e-015
lhumerus -31.4391 4.06444 83.8405
lradius 26.013
lwrist 15.0883
lhand -20.1841 14.761
lfingers 7.12502
lthumb 6.1621 44.6514
rfemur -5.61462 3.33132 32.95
rtibia 29.7923
rfoot -24.371 -17.2094
rtoes 10.0422
lfemur -25.7974 6.58864 -12.4954
ltibia 49.776
lfoot -12.2668 10.1422
ltoes -18.4548
507
root 24.7576 16.5686 -4.0299 -447.166 84.434 -444.903
lowerback 3.52805 -1.2889 4.54716
upperback 2.71113 -1.55344 0.435655
thorax 0.701992 -0.69778 -2.05379
lowerneck -8.84136 0.0489472 2.46488
upperneck 14.5416 -0.376032 1.26015
head 5.85389 0.0956805 -0.0319922
rclavicle 7.85199e-015 3.97569e-015
rhumerus -31.6638 -3.50118 -86.6697
rradius 29.1396
rwrist 0.838967
rhand -18.7945 -7.7738
rfingers 7.12502
rthumb 7.50349 -37.6207
lclavicle 7.85199e-015 3.97569e-015
lhumerus -31.5484 4.24942 83.8086
lradius 25.7273
lwrist 14.8543
lhand -20.226 14.8049
lfingers 7.12502
lthumb 6.12163 44.6965
rfemur -5.92687 3.41193 32.8579
rtibia 29.9587
rfoot -24.2481 -17.2703
rtoes 10.1142
lfemur -25.3075 6.3559 -12.4057
ltibia 51.1839
lfoot -12.4858 10.2786
ltoes -18.3992
508
root 24.6897 16.572 -4.03836 -447.171 84.4923 -444.878
lowerback 3.48126 -1.29914 4.50884
upperback 2.70237 -1.57096 0.436282
thorax 0.718804 -0.707079 -2.03208
lowerneck -8.82714 0.0519676 2.46297
upperneck 14.5654 -0.366994 1.23389
head 5.85887 0.0985052 -0.0392362
rclavicle -2.67365e-014 -2.38542e-015
rhumerus -31.7002 -3.64647 -86.5563
rradius 28.9399
rwrist 0.957547
rhand -18.7836 -7.72918
rfingers 7.12502
rthumb 7.51406 -37.5757
lclavicle -2.67365e-014 -2.38542e-015
lhumerus -31.6519 4.44596 83.7721
lradius 25.4325
lwrist 14.642
lhand -20.2598 14.8556
lfingers 7.12502
lthumb 6.08897 44.7481
rfemur -6.22949 3.48984 32.7573
rtibia 30.1079
rfoot -24.1135 -17.3159
rtoes 10.1994
lfemur -24.753 6.12621 -12.3294
ltibia 52.4852
lfoot -12.6182 10.2801
ltoes -18.4207
509
root 24.6231 16.5763 -4.04704 -447.072 84.5578 -444.751
lowerback 3.42183 -1.30635 4.46076
upperback 2.69363 -1.58544 0.436318
thorax 0.743141 -0.714876 -2.00592
lowerneck -8.80653 0.0550255 2.45808
upperneck 14.5802 -0.358052 1.21336
head 5.85993 0.101359 -0.044207
rclavicle -8.87077e-015 -1.19271e-014
rhumerus -31.7322 -3.80066 -86.4362
rradius 28.7315
rwrist 1.07316
rhand -18.7695 -7.67769
rfingers 7.12502
rthumb 7.52766 -37.5237
lclavicle -8.87077e-015 -1.19271e-014
lhumerus -31.7464 4.65796 83.7287
lradius 25.1238
lwrist 14.4488
lhand -20.2781 14.8913
lfingers 7.12502
lthumb 6.07135 44.7843
rfemur -6.5178 3.56039 32.6429
rtibia 30.2325
rfoot -23.9689 -17.3429
rtoes 10.3072
lfemur -24.128 5.90297 -12.2719
ltibia 53.67
lfoot -12.7004 10.1508
ltoes -18.4774
510
root 24.5579 16.5816 -4.05592 -446.824 84.6236 -444.475
lowerback 3.34931 -1.30931 4.41172
upperback 2.68438 -1.59502 0.434895
thorax 0.77462 -0.720135 -1.98119
lowerneck -8.78995 0.0589569 2.46713
upperneck 14.601 -0.349177 1.18656
head 5.8636 0.104617 -0.0534399
rclavicle 4.19436e-014 -1.15295e-014
rhumerus -31.7617 -3.96448 -86.3141
rradius 28.5138
rwrist 1.18613
rhand -18.753 -7.62089
rfingers 7.12502
rthumb 7.54354 -37.4664
lclavicle 4.19436e-014 -1.15295e-014
lhumerus -31.8335 4.88198 83.6736
lradius 24.7994
lwrist 14.2724
lhand -20.2766 14.9159
lfingers 7.12502
lthumb 6.07281 44.8089
rfemur -6.7843 3.62933 32.5236
rtibia 30.3235
rfoot -23.8137 -17.3572
rtoes 10.4104
lfemur -23.4279 5.69803 -12.228
ltibia 54.7321
lfoot -12.7329 9.93339
ltoes -18.6204
511
root 24.4944 16.5884 -4.06507 -446.44 84.6894 -444.065
lowerback 3.26337 -1.30866 4.36606
upperback 2.6756 -1.60043 0.431056
thorax 0.814228 -0.723114 -1.96129
lowerneck -8.81334 0.0575174 2.48678
upperneck 14.6547 -0.349407 1.14977
head 5.88436 0.103947 -0.0682173
rclavicle -2.71838e-014 4.77083e-015
rhumerus -31.7854 -4.13937 -86.1901
rradius 28.2872
rwrist 1.3062
rhand -18.7356 -7.56191
rfingers 7.12502
rthumb 7.5604 -37.4068
lclavicle -2.71838e-014 4.77083e-015
lhumerus -31.9148 5.10926 83.61
lradius 24.4732
lwrist 14.1143
lhand -20.2539 14.9593
lfingers 7.12502
lthumb 6.09473 44.8517
rfemur -7.02597 3.69417 32.3981
rtibia 30.3705
rfoot -23.6587 -17.3572
rtoes 10.5246
lfemur -22.6535 5.51666 -12.1999
ltibia 55.6656
lfoot -12.7223 9.6469
ltoes -18.8126
512
root 24.4323 16.5967 -4.07447 -445.909 84.751 -443.51
lowerback 3.16309 -1.3032 4.3279
upperback 2.66703 -1.60001 0.425134
thorax 0.862243 -0.722927 -1.94823
lowerneck -8.81514 0.0606172 2.48485
upperneck 14.6868 -0.344064 1.14455
head 5.89478 0.106765 -0.0691002
rclavicle -5.19325e-015 -3.57812e-015
rhumerus -31.8049 -4.33378 -86.0631
rradius 28.0546
rwrist 1.44056
rhand -18.7191 -7.50317
rfingers 7.12502
rthumb 7.57624 -37.3475
lclavicle -5.19325e-015 -3.57812e-015
lhumerus -31.9941 5.33152 83.5375
lradius 24.1497
lwrist 13.975
lhand -20.2099 14.9968
lfingers 7.12502
lthumb 6.13713 44.888
rfemur -7.24016 3.76135 32.2724
rtibia 30.3684
rfoot -23.4929 -17.349
rtoes 10.6431
lfemur -21.8053 5.36629 -12.1819
ltibia 56.4719
lfoot -12.6781 9.304
ltoes -18.9853
513
root 24.3717 16.6067 -4.08411 -445.276 84.8028 -442.855
lowerback 3.05046 -1.29528 4.30307
upperback 2.65884 -1.59663 0.419319
thorax 0.917457 -0.720935 -1.94287
lowerneck -8.82013 0.0636669 2.47759
upperneck 14.7178 -0.339361 1.14731
head 5.90544 0.109557 -0.0666358
rclavicle -3.00662e-015 -1.51076e-014
rhumerus -31.8224 -4.54669 -85.9344
rradius 27.8194
rwrist 1.59386
rhand -18.7063 -7.44584
rfingers 7.12502
rthumb 7.5886 -37.2897
lclavicle -3.00662e-015 -1.51076e-014
lhumerus -32.0671 5.55647 83.4555
lradius 23.8266
lwrist 13.8422
lhand -20.1426 15.0225
lfingers 7.12502
lthumb 6.20211 44.9117
rfemur -7.42542 3.82992 32.1531
rtibia 30.3149
rfoot -23.3141 -17.3346
rtoes 10.7654
lfemur -20.893 5.25284 -12.169
ltibia 57.1524
lfoot -12.5579 8.95973
ltoes -19.301
514
root 24.3126 16.6178 -4.09406 -444.533 84.8485 -442.095
lowerback 2.92406 -1.28417 4.28596
upperback 2.65101 -1.58957 0.41398
thorax 0.980825 -0.716846 -1.94174
lowerneck -8.84281 0.0645399 2.46983
upperneck 14.7614 -0.338046 1.14816
head 5.9231 0.110779 -0.0649364
rclavicle 1.22501e-014 3.97569e-015
rhumerus -31.8392 -4.77217 -85.8035
rradius 27.5826
rwrist 1.7645
rhand -18.6954 -7.39091
rfingers 7.12502
rthumb 7.59917 -37.2344
lclavicle 1.22501e-014 3.97569e-015
lhumerus -32.1416 5.77651 83.3683
lradius 23.5166
lwrist 13.7157
lhand -20.0578 15.0356
lfingers 7.12502
lthumb 6.28404 44.9224
rfemur -7.58289 3.89653 32.0362
rtibia 30.214
rfoot -23.1193 -17.3109
rtoes 10.8962
lfemur -19.9222 5.17726 -12.1651
ltibia 57.7134
lfoot -12.3707 8.625
ltoes -19.6224
515
root 24.2548 16.6298 -4.1042 -443.77 84.8919 -441.317
lowerback 2.78715 -1.27357 4.26973
upperback 2.64282 -1.5837 0.410628
thorax 1.04968 -0.713267 -1.93924
lowerneck -8.85748 0.0668908 2.45704
upperneck 14.7938 -0.334112 1.15198
head 5.93584 0.112965 -0.0612874
rclavicle -3.85145e-015 -8.34896e-015
rhumerus -31.8534 -5.00087 -85.6706
rradius 27.3453
rwrist 1.94181
rhand -18.685 -7.33781
rfingers 7.12502
rthumb 7.60918 -37.1809
lclavicle -3.85145e-015 -8.34896e-015
lhumerus -32.2093 6.00615 83.2744
lradius 23.2054
lwrist 13.5801
lhand -19.954 15.0243
lfingers 7.12502
lthumb 6.38423 44.9081
rfemur -7.71533 3.95971 31.9191
rtibia 30.0728
rfoot -22.898 -17.2826
rtoes 11.0228
lfemur -18.9028 5.13438 -12.1719
ltibia 58.1618
lfoot -12.1326 8.29799
ltoes -19.9175
516
root 24.1977 16.6421 -4.11455 -443.048 84.9347 -440.582
lowerback 2.64649 -1.26629 4.25271
upperback 2.63078 -1.58238 0.408485
thorax 1.11645 -0.712122 -1.93497
lowerneck -8.8428 0.075718 2.4357
upperneck 14.802 -0.320506 1.16686
head 5.93603 0.119729 -0.0520272
rclavicle 1.00386e-014 -1.90833e-014
rhumerus -31.8693 -5.22625 -85.539
rradius 27.1092
rwrist 2.12196
rhand -18.6748 -7.28576
rfingers 7.12502
rthumb 7.61905 -37.1285
lclavicle 1.00386e-014 -1.90833e-014
lhumerus -32.2775 6.24373 83.1723
lradius 22.9016
lwrist 13.4342
lhand -19.8385 15.0077
lfingers 7.12502
lthumb 6.49577 44.8881
rfemur -7.83049 4.00888 31.7999
rtibia 29.9035
rfoot -22.6515 -17.2391
rtoes 11.1422
lfemur -17.8445 5.1175 -12.1888
ltibia 58.505
lfoot -11.8512 7.97677
ltoes -20.0785
517
root 24.1412 16.6545 -4.12493 -442.411 84.9812 -439.934
lowerback 2.5054 -1.26297 4.22823
upperback 2.61414 -1.58638 0.407528
thorax 1.17861 -0.713964 -1.92518
lowerneck -8.83364 0.0847831 2.43899
upperneck 14.8168 -0.306467 1.15536
head 5.93914 0.126176 -0.0550999
rclavicle -1.08835e-014 1.74931e-014
rhumerus -31.8862 -5.44538 -85.4081
rradius 26.8758
rwrist 2.29893
rhand -18.664 -7.23508
rfingers 7.12502
rthumb 7.6295 -37.0775
lclavicle -1.08835e-014 1.74931e-014
lhumerus -32.343 6.49389 83.0623
lradius 22.602
lwrist 13.2667
lhand -19.7143 14.9913
lfingers 7.12502
lthumb 6.6156 44.8679
rfemur -7.93638 4.04492 31.6751
rtibia 29.719
rfoot -22.3896 -17.1806
rtoes 11.2803
lfemur -16.7558 5.1159 -12.2162
ltibia 58.7512
lfoot -11.5626 7.62655
ltoes -20.0456
